PathFileType	4	(X/Y/Z)	c:/Users/goper/Files/vsCode/490R/osim_files/A01/A01_Slow_06.trc
DataRate	CameraRate	NumFrames	NumMarkers	Units                	OrigDataRate	OrigDataStartFrame	OrigNumFrames
120.00	120.00	7	36	mm	120.0	577	1152
                Frame#	Time	Mobility_markerset:LPSIS			Mobility_markerset:LASIS			Mobility_markerset:LTH1			Mobility_markerset:LTH2			Mobility_markerset:LTH3			Mobility_markerset:LTH4			Mobility_markerset:LLFE			Mobility_markerset:LMFE			Mobility_markerset:LSH1			Mobility_markerset:LSH2			Mobility_markerset:LSH3			Mobility_markerset:LSH4			Mobility_markerset:LLMAL			Mobility_markerset:LMMAL			Mobility_markerset:LCAL			Mobility_markerset:LMTP5			Mobility_markerset:LTOE			Mobility_markerset:LMTP1			Mobility_markerset:RPSIS			Mobility_markerset:RASIS			Mobility_markerset:RTH1			Mobility_markerset:RTH2			Mobility_markerset:RTH3			Mobility_markerset:RTH4			Mobility_markerset:RLFE			Mobility_markerset:RMFE			Mobility_markerset:RSH1			Mobility_markerset:RSH2			Mobility_markerset:RSH3			Mobility_markerset:RSH4			Mobility_markerset:RLMAL			Mobility_markerset:RMMAL			Mobility_markerset:RCAL			Mobility_markerset:RMTP1			Mobility_markerset:RTOE			Mobility_markerset:RMTP5		
		X1	Y1	Z1	X2	Y2	Z2	X3	Y3	Z3	X4	Y4	Z4	X5	Y5	Z5	X6	Y6	Z6	X7	Y7	Z7	X8	Y8	Z8	X9	Y9	Z9	X10	Y10	Z10	X11	Y11	Z11	X12	Y12	Z12	X13	Y13	Z13	X14	Y14	Z14	X15	Y15	Z15	X16	Y16	Z16	X17	Y17	Z17	X18	Y18	Z18	X19	Y19	Z19	X20	Y20	Z20	X21	Y21	Z21	X22	Y22	Z22	X23	Y23	Z23	X24	Y24	Z24	X25	Y25	Z25	X26	Y26	Z26	X27	Y27	Z27	X28	Y28	Z28	X29	Y29	Z29	X30	Y30	Z30	X31	Y31	Z31	X32	Y32	Z32	X33	Y33	Z33	X34	Y34	Z34	X35	Y35	Z35	X36	Y36	Z36

577	4.80000	57.35613	1035.13977	271.61877	-171.52322	1021.75623	382.54724	-147.10315	692.95831	444.57370	-168.37149	650.02570	443.11038	-202.90051	714.12732	452.82706	-216.54251	669.77899	445.96030	-208.08528	536.74677	420.48813	-252.12029	525.51819	290.64633	-69.24966	448.96030	381.03522	-34.49167	416.24338	376.94650	-107.75178	400.88309	389.05762	-68.62331	376.87814	383.07269	126.90301	227.08322	326.94797	115.65438	232.90318	241.19093	193.49355	263.02197	268.85263	71.84374	93.71410	361.54495	23.33783	91.18555	302.96683	35.48726	91.86117	266.63260	47.70860	1040.70532	169.85109	-194.36169	1010.39270	120.47874	-99.01487	677.65912	45.17183	-112.87144	637.57538	53.14650	-159.09998	692.68152	46.77360	-163.63954	650.15082	52.26735	-172.30652	504.95078	101.24641	-171.82040	521.22498	220.83601	-78.95734	305.50244	98.25412	-81.33351	260.49118	100.89336	-140.79782	301.89182	98.65126	-135.18057	257.64401	100.99258	-99.70023	84.71770	141.69748	-122.70387	107.25350	224.42946	-45.95214	61.22448	191.45790	-250.83969	43.85754	235.48077	-286.22705	57.24823	189.48946	-233.41722	31.32791	120.44478
578	4.80833	48.65716	1036.67468	271.49823	-181.03954	1023.97333	381.68817	-162.43918	695.72693	444.55881	-184.49294	653.22461	442.81561	-217.77243	717.94873	451.91446	-232.44052	673.78052	444.70377	-225.77803	540.25555	418.93723	-268.71704	530.86078	288.79788	-88.97807	448.74594	380.50095	-55.61634	414.95322	376.71390	-128.95752	401.76440	388.06540	-91.07922	376.38885	382.05502	101.00388	221.34416	327.32846	91.38029	227.32965	242.95618	169.23047	255.53470	270.01901	41.75354	89.46804	360.93906	-6.25214	88.48718	301.89319	6.69445	88.91328	265.57520	39.18403	1041.89648	169.82712	-202.59117	1010.78497	119.48772	-103.92404	678.10828	45.16083	-117.19423	638.09778	52.98262	-164.13333	692.63715	45.88334	-168.08214	650.10229	51.88363	-174.64468	504.64594	100.37932	-175.43095	521.11548	220.24481	-80.47607	306.02606	98.17991	-82.52282	261.09537	100.80692	-142.24464	301.97763	98.28710	-136.29402	257.75568	100.64635	-99.97738	84.98360	141.75420	-123.20659	107.44458	224.41899	-46.21201	61.55732	191.54121	-251.13615	43.90152	235.56830	-286.44470	56.93259	189.41302	-233.51740	31.25303	120.38065
579	4.81667	39.88706	1037.96851	271.48529	-189.35866	1025.06604	380.19937	-177.71890	698.35339	444.64008	-200.59084	656.34479	442.46066	-233.19145	721.94055	450.11679	-248.14790	677.53436	443.32169	-242.69778	543.94952	417.39258	-284.97821	536.02783	286.92331	-108.53019	448.33386	379.86813	-76.21070	413.57324	376.27164	-150.09662	402.56070	387.13943	-112.82392	375.98071	381.44717	74.68707	215.09447	327.82877	68.12364	219.26857	241.67961	143.95045	247.07513	271.05460	11.08664	85.10394	360.92606	-36.59617	85.67583	301.55362	-23.32998	85.74322	265.28958	30.70720	1042.93982	169.86314	-210.68433	1011.18542	118.61022	-108.70082	678.52588	45.27442	-121.41810	638.53601	53.05054	-169.23747	692.70050	46.22723	-172.41960	650.07288	51.60006	-177.16177	504.21707	99.56695	-178.90341	521.08856	219.92465	-81.98920	306.57312	98.23798	-83.64230	261.59698	100.89794	-143.76657	301.95181	98.14233	-137.43352	257.84512	100.42474	-100.21200	85.24791	141.82996	-123.79315	107.54129	224.78029	-46.39260	61.84697	191.65645	-251.20366	43.70921	235.56577	-286.68634	56.63245	189.34840	-233.63799	31.17762	120.33915
580	4.82500	31.35855	1039.17200	271.50989	-198.97203	1027.07556	379.18155	-192.71672	701.10779	444.84848	-216.34236	659.55701	442.06985	-247.90593	725.66925	449.12289	-263.60260	681.43274	441.98639	-259.22873	547.65497	415.71405	-301.10037	540.96515	285.02646	-128.01208	447.74124	379.03323	-96.79357	411.94403	375.73337	-171.04355	403.36157	386.29898	-134.49550	375.71521	380.84268	47.70524	208.45882	328.39557	47.69610	211.02353	241.02243	118.73959	238.19968	271.88858	-20.23684	80.69486	361.36639	-67.54792	82.64949	301.84207	-53.77443	82.13300	265.36441	22.26535	1043.89331	169.95038	-218.56580	1011.48877	117.53078	-113.26020	678.84131	45.54125	-125.46017	638.88403	53.28930	-173.75244	692.61212	46.08795	-176.74464	649.89050	51.47942	-179.63290	503.93591	98.93896	-182.38716	521.10059	219.73251	-83.48417	307.10287	98.46127	-84.78500	262.10272	101.08330	-145.14362	302.02481	97.84305	-138.55373	257.89368	100.35310	-100.45853	85.52044	141.96797	-124.36774	107.75794	224.89749	-46.63132	62.19931	191.78149	-251.35181	43.55026	235.55367	-286.93442	56.33951	189.30125	-233.72389	31.10575	120.28739
581	4.83333	22.87946	1040.24060	271.56796	-207.90256	1028.50757	377.88504	-207.37323	704.07361	444.79565	-231.61089	662.90900	441.53812	-262.25101	729.52393	448.02640	-278.57047	685.47797	440.55084	-274.99744	551.57819	414.06476	-316.93460	545.59949	283.20703	-147.26791	446.91010	378.17007	-117.49892	409.99573	374.98145	-191.86899	404.13367	385.43005	-155.72366	375.46881	380.43448	20.44626	201.66521	328.96262	11.85537	206.62358	244.40308	92.49670	228.64349	272.59579	-51.75432	76.53899	362.38507	-98.89376	79.62720	302.44855	-85.32047	78.73899	266.42191	13.94068	1044.73157	170.14761	-226.67661	1011.88721	116.69151	-118.22060	678.79163	46.01895	-128.98889	639.21216	53.23632	-178.30727	692.36963	45.99052	-180.83826	649.66589	51.63015	-182.25224	503.76486	98.58033	-185.80878	521.01886	219.48746	-84.78831	307.69348	98.70638	-85.88328	262.64389	101.39994	-146.65425	301.93835	97.89248	-139.54980	258.00110	100.31522	-100.74609	85.81375	142.17267	-124.56748	107.75830	224.89281	-46.72123	62.64973	191.89049	-251.53670	43.32361	235.39996	-287.13846	56.13388	189.30634	-233.82385	31.09385	120.25876
582	4.84167	14.58957	1041.13525	271.67484	-218.05655	1030.09802	376.72446	-221.61334	707.01019	444.34479	-246.57516	666.26019	440.63626	-276.02844	733.41272	446.66946	-293.03339	689.46320	439.05768	-290.46179	555.14594	412.20615	-331.48761	550.72467	282.26254	-166.33659	445.92139	377.16580	-137.55029	406.50754	375.16415	-212.50652	404.78522	384.59933	-178.89604	373.78189	379.00314	-7.34015	194.66255	329.75745	-15.09260	199.47604	245.47798	65.72981	218.68890	273.28439	-84.16055	72.16015	363.60553	-130.78798	76.69476	303.69571	-117.26974	75.24136	267.57224	5.72209	1045.41187	170.27119	-234.45410	1012.03418	115.83083	-121.54001	679.57336	45.64085	-133.26544	639.55005	53.86056	-182.78688	692.10376	45.93774	-185.01366	649.35614	51.87196	-185.27110	503.66187	98.42226	-189.48894	520.80945	219.16808	-86.29730	308.19772	98.98215	-86.95651	263.16772	101.67702	-148.48712	301.85535	98.03207	-140.77646	258.08603	100.39371	-100.91908	86.31223	142.21788	-124.93091	107.97318	225.06607	-46.65760	63.26448	191.78816	-251.67653	43.20679	235.36884	-287.28143	55.95028	189.28847	-233.87784	31.10748	120.27157
583	4.85000	6.20586	1041.78894	271.86124	-225.88768	1030.59399	375.45520	-235.33476	709.92474	443.66397	-260.82028	669.64075	439.96130	-289.33087	737.11151	445.46597	-306.98230	693.45746	437.52280	-305.50549	558.58331	410.28973	-347.84631	554.49652	279.50897	-185.36072	444.69580	376.16531	-157.78896	404.67377	374.56543	-232.97156	405.23431	383.79526	-200.39720	373.45178	377.79349	-35.62278	187.35393	330.49356	-43.04521	191.96413	246.28944	39.05815	208.89005	274.63998	-116.81090	68.05363	365.15054	-163.19670	73.81575	305.08972	-149.66435	71.61686	269.04727	-2.51185	1045.83582	170.59074	-242.46057	1012.16095	115.02731	-125.07133	681.30408	46.78560	-137.49274	639.80267	54.40905	-187.05424	691.63635	46.13483	-189.24855	649.09045	52.14566	-188.64861	503.51865	98.57711	-192.88995	520.59308	219.32771	-87.91262	308.68744	99.25793	-88.35254	263.67148	101.94115	-149.60870	302.15640	97.94111	-142.03046	258.19565	100.45185	-101.23579	86.62457	142.48329	-126.97307	108.80276	226.49713	-46.81001	63.70443	191.99794	-251.99243	43.08268	235.57991	-287.53723	55.71647	189.34421	-233.95737	31.11217	120.26125
